<svg xmlns="http://www.w3.org/2000/svg" viewBox="0 0 209.64 113.88"><defs><style>.cls-1{fill:#1d58ff;}</style></defs><title>logo-ptbr</title><g id="Layer_2" data-name="Layer 2"><g id="Logo"><path class="cls-1" d="M128.45,58.69V40.17c0-12.88-9.84-23.42-22.18-24.12A11.09,11.09,0,0,0,105,16C92,16,81.49,26.83,81.49,40.17V58.58a10.23,10.23,0,0,0-7.1,9.81v5.29a3.2,3.2,0,0,0,3.2,3.2h54.46a3.21,3.21,0,0,0,3.2-3.2V68.39A10.24,10.24,0,0,0,128.45,58.69ZM87.9,40.17c0-9.81,7.65-17.79,17.07-17.79.24,0,.48,0,.72,0a4,4,0,0,1,2.66,1.25c1.92,2.09,2.05,6.3,1.93,7.74,0,.09,0,.19,0,.28v8.4a3.21,3.21,0,0,0,6.41,0V31.81a22.78,22.78,0,0,0-.23-4.76A18,18,0,0,1,122,40.17v18h-5.36V50.77a3.21,3.21,0,0,0-6.41,0v7.37H87.9Zm40.94,30.3h-48V68.39a3.73,3.73,0,0,1,3.61-3.84h40.84a3.73,3.73,0,0,1,3.6,3.84Z"/><path class="cls-1" d="M104.82,0a3.2,3.2,0,0,0-3.2,3.2v6.9a3.2,3.2,0,1,0,6.4,0V3.2A3.2,3.2,0,0,0,104.82,0Z"/><path class="cls-1" d="M126.42,7.19a3.21,3.21,0,0,0-4.53.08l-4.71,4.89a3.19,3.19,0,0,0,2.3,5.42,3.16,3.16,0,0,0,2.3-1l4.72-4.89A3.21,3.21,0,0,0,126.42,7.19Z"/><path class="cls-1" d="M92.46,12.15,87.75,7.27a3.21,3.21,0,0,0-4.61,4.46l4.71,4.88a3.21,3.21,0,0,0,4.61-4.46Z"/><path class="cls-1" d="M5.89,96.31h.52a7,7,0,0,1,4.44,2,4.48,4.48,0,0,1,1.5,2.9v.36c0,.69-.59,1.52-1.76,2.48l-.46.52h.46c.78,0,1.38.55,1.81,1.65v.67c0,.78-.55,1.38-1.65,1.81H5.89A6.15,6.15,0,0,1,1,105.92a6.2,6.2,0,0,1-1-3.1v-.62a6.12,6.12,0,0,1,5.89-5.89Zm-1.7,6.46A2.4,2.4,0,0,0,4.75,104l3-3a2.42,2.42,0,0,0-1.24-.56H5.94c-.76,0-1.34.53-1.75,1.6Z"/><path class="cls-1" d="M20.88,96.31h.56a6.09,6.09,0,0,1,3.88,1.55,6,6,0,0,1,3.88-1.55h.56a6.12,6.12,0,0,1,5.89,5.89v4.7c0,.78-.55,1.38-1.65,1.81h-.67c-.78,0-1.38-.55-1.81-1.65L31.47,106v-3.72c0-.76-.54-1.35-1.6-1.75H29.2c-.76,0-1.35.53-1.76,1.6l-.05,1.08v3.72c0,.78-.55,1.38-1.66,1.81h-.67c-.77,0-1.38-.55-1.81-1.65L23.2,106v-3.72c0-.76-.53-1.35-1.6-1.75h-.67c-.76,0-1.35.53-1.76,1.6l-.05,1.08v3.72c0,.78-.55,1.38-1.65,1.81h-.68q-1.15,0-1.8-1.65V102.2a6.12,6.12,0,0,1,5.89-5.89Z"/><path class="cls-1" d="M44.13,96.31h.62a6.12,6.12,0,0,1,5.89,5.89v.62a6.12,6.12,0,0,1-5.89,5.89h-.57a6.08,6.08,0,0,1-1.81-.31v3.67c0,.78-.55,1.38-1.65,1.81h-.67c-.78,0-1.38-.55-1.81-1.65v-10a6.12,6.12,0,0,1,5.89-5.89Zm-1.71,6.46c0,.76.54,1.34,1.61,1.76h.67c.76,0,1.35-.54,1.75-1.61v-.67c0-.76-.53-1.35-1.6-1.75h-.67c-.76,0-1.34.53-1.76,1.6Z"/><path class="cls-1" d="M59.11,96.31h.57c.78,0,1.38.55,1.81,1.65v.68q0,1.15-1.65,1.8a2.24,2.24,0,0,0-2.38,1.45l-.1,1.29v3.72c0,.78-.55,1.38-1.66,1.81H55c-.77,0-1.38-.55-1.81-1.65V102.2A6.15,6.15,0,0,1,56,97.29,6.23,6.23,0,0,1,59.11,96.31Z"/><path class="cls-1" d="M70,96.31h.51a7,7,0,0,1,4.45,2,4.51,4.51,0,0,1,1.49,2.9v.36c0,.69-.58,1.52-1.75,2.48l-.47.52h.47c.77,0,1.38.55,1.81,1.65v.67c0,.78-.56,1.38-1.66,1.81H70a6.15,6.15,0,0,1-5.9-5.89v-.62a6.15,6.15,0,0,1,2.79-4.91A6.27,6.27,0,0,1,70,96.31Zm-1.71,6.46a2.44,2.44,0,0,0,.57,1.24l2.94-3a2.39,2.39,0,0,0-1.24-.56H70c-.76,0-1.35.53-1.76,1.6Z"/><path class="cls-1" d="M85,96.31h.62a6.12,6.12,0,0,1,5.89,5.89V108a6.12,6.12,0,0,1-5.89,5.89H85c-.77,0-1.38-.55-1.81-1.65v-.68a2,2,0,0,1,1-1.55,5.48,5.48,0,0,1,1.81-.41q1.08-.69,1.08-1.14h-.05a4.17,4.17,0,0,1-1.55.26H85a6.12,6.12,0,0,1-5.89-5.89v-.62A6.12,6.12,0,0,1,85,96.31Zm-1.7,6.46c0,.76.53,1.34,1.6,1.76h.67c.77,0,1.35-.54,1.76-1.61v-.67c0-.76-.54-1.35-1.61-1.75H85c-.76,0-1.34.53-1.75,1.6Z"/><path class="cls-1" d="M99.94,96.31h.62a6.15,6.15,0,0,1,5.89,5.89v.62a6.15,6.15,0,0,1-2.79,4.91,6.23,6.23,0,0,1-3.1,1h-.62a6.15,6.15,0,0,1-5.9-5.89v-.62a6.18,6.18,0,0,1,2.79-4.91A6.27,6.27,0,0,1,99.94,96.31Zm-1.71,6.46c0,.76.53,1.34,1.6,1.76h.67c.77,0,1.36-.54,1.76-1.61v-.67c0-.76-.53-1.35-1.6-1.75H100c-.76,0-1.35.53-1.76,1.6Z"/><path class="cls-1" d="M117.92,96.31c.77,0,1.38.55,1.81,1.65v3.88c0,1.47.46,2.33,1.39,2.58l.42.11h.51c.77,0,1.35-.54,1.76-1.61V99.05c0-1.4.41-2.25,1.24-2.53,0-.08.21-.15.62-.21h.52q1.16,0,1.8,1.65v4.86a6.12,6.12,0,0,1-5.89,5.89h-.62a6.12,6.12,0,0,1-5.89-5.89v-4.7c0-.78.55-1.38,1.66-1.81Z"/><path class="cls-1" d="M136.47,96.31H137c.77,0,1.38.55,1.81,1.65v.68c0,.77-.56,1.37-1.66,1.8a2.23,2.23,0,0,0-2.37,1.45l-.11,1.29v3.72c0,.78-.55,1.38-1.65,1.81h-.67c-.78,0-1.38-.55-1.81-1.65V102.2a6.12,6.12,0,0,1,5.89-5.89Z"/><path class="cls-1" d="M147.32,96.31h.62a6.12,6.12,0,0,1,5.89,5.89V108a6.12,6.12,0,0,1-5.89,5.89h-.57c-.77,0-1.38-.55-1.81-1.65v-.68a2,2,0,0,1,1-1.55,5.55,5.55,0,0,1,1.8-.41c.73-.46,1.09-.84,1.09-1.14h-.05a4.17,4.17,0,0,1-1.55.26h-.57a6.12,6.12,0,0,1-5.89-5.89v-.62a6.12,6.12,0,0,1,5.89-5.89Zm-1.71,6.46c0,.76.54,1.34,1.61,1.76h.67c.76,0,1.35-.54,1.76-1.61v-.67c0-.76-.54-1.35-1.61-1.75h-.67c-.76,0-1.34.53-1.76,1.6Z"/><path class="cls-1" d="M162.31,96.31h.51a7,7,0,0,1,4.45,2,4.46,4.46,0,0,1,1.49,2.9v.36c0,.69-.58,1.52-1.75,2.48l-.47.52H167c.77,0,1.38.55,1.81,1.65v.67c0,.78-.55,1.38-1.66,1.81h-4.85a6.15,6.15,0,0,1-5.9-5.89v-.62a6.15,6.15,0,0,1,2.79-4.91A6.27,6.27,0,0,1,162.31,96.31Zm-1.71,6.46a2.44,2.44,0,0,0,.57,1.24l2.94-3a2.39,2.39,0,0,0-1.24-.56h-.51c-.76,0-1.35.53-1.76,1.6Z"/><path class="cls-1" d="M177.29,96.31h.62a6.12,6.12,0,0,1,5.89,5.89v4.7c0,.78-.55,1.38-1.65,1.81h-.67c-.78,0-1.38-.55-1.81-1.65l0-1.09v-3.72c0-.76-.54-1.35-1.61-1.75h-.67c-.76,0-1.34.53-1.75,1.6l-.06,1.08v3.72c0,.78-.55,1.38-1.65,1.81h-.67c-.78,0-1.38-.55-1.81-1.65V102.2a6.12,6.12,0,0,1,5.89-5.89Z"/><path class="cls-1" d="M188.71,91.14a2,2,0,0,1,1.55,1,2.9,2.9,0,0,1,.31,1.6v2.43l0,.05v0h2.32c.78,0,1.38.55,1.81,1.65v.68q0,1.15-1.65,1.8l-1.09.06h-1.39v1.34c0,1.47.46,2.33,1.39,2.58l1.45.26q1.29.78,1.29,1.71v.51c0,.78-.55,1.38-1.65,1.81h-.72a6.12,6.12,0,0,1-5.89-5.89V93c0-.77.55-1.38,1.65-1.81Z"/><path class="cls-1" d="M203.13,96.31h.51a7,7,0,0,1,4.45,2,4.48,4.48,0,0,1,1.5,2.9v.36c0,.69-.59,1.52-1.76,2.48l-.47.52h.47c.77,0,1.38.55,1.81,1.65v.67c0,.78-.55,1.38-1.66,1.81h-4.85a6.12,6.12,0,0,1-5.89-5.89v-.62a6.12,6.12,0,0,1,5.89-5.89Zm-1.71,6.46A2.44,2.44,0,0,0,202,104l2.95-3a2.42,2.42,0,0,0-1.24-.56h-.52c-.76,0-1.34.53-1.76,1.6Z"/></g></g></svg>